%TF.GenerationSoftware,KiCad,Pcbnew,(6.0.9)*%
%TF.CreationDate,2023-03-16T14:55:21+00:00*%
%TF.ProjectId,Matrix_V2_Base,4d617472-6978-45f5-9632-5f426173652e,rev?*%
%TF.SameCoordinates,Original*%
%TF.FileFunction,Paste,Top*%
%TF.FilePolarity,Positive*%
%FSLAX46Y46*%
G04 Gerber Fmt 4.6, Leading zero omitted, Abs format (unit mm)*
G04 Created by KiCad (PCBNEW (6.0.9)) date 2023-03-16 14:55:21*
%MOMM*%
%LPD*%
G01*
G04 APERTURE LIST*
G04 Aperture macros list*
%AMRoundRect*
0 Rectangle with rounded corners*
0 $1 Rounding radius*
0 $2 $3 $4 $5 $6 $7 $8 $9 X,Y pos of 4 corners*
0 Add a 4 corners polygon primitive as box body*
4,1,4,$2,$3,$4,$5,$6,$7,$8,$9,$2,$3,0*
0 Add four circle primitives for the rounded corners*
1,1,$1+$1,$2,$3*
1,1,$1+$1,$4,$5*
1,1,$1+$1,$6,$7*
1,1,$1+$1,$8,$9*
0 Add four rect primitives between the rounded corners*
20,1,$1+$1,$2,$3,$4,$5,0*
20,1,$1+$1,$4,$5,$6,$7,0*
20,1,$1+$1,$6,$7,$8,$9,0*
20,1,$1+$1,$8,$9,$2,$3,0*%
%AMFreePoly0*
4,1,9,3.862500,-0.866500,0.737500,-0.866500,0.737500,-0.450000,-0.737500,-0.450000,-0.737500,0.450000,0.737500,0.450000,0.737500,0.866500,3.862500,0.866500,3.862500,-0.866500,3.862500,-0.866500,$1*%
G04 Aperture macros list end*
%ADD10RoundRect,0.250000X-0.450000X-0.250000X0.450000X-0.250000X0.450000X0.250000X-0.450000X0.250000X0*%
%ADD11RoundRect,0.250000X0.250000X-0.450000X0.250000X0.450000X-0.250000X0.450000X-0.250000X-0.450000X0*%
%ADD12RoundRect,0.250000X0.350000X0.450000X-0.350000X0.450000X-0.350000X-0.450000X0.350000X-0.450000X0*%
%ADD13RoundRect,0.250000X-0.450000X0.350000X-0.450000X-0.350000X0.450000X-0.350000X0.450000X0.350000X0*%
%ADD14RoundRect,0.237500X-0.300000X-0.237500X0.300000X-0.237500X0.300000X0.237500X-0.300000X0.237500X0*%
%ADD15RoundRect,0.237500X0.300000X0.237500X-0.300000X0.237500X-0.300000X-0.237500X0.300000X-0.237500X0*%
%ADD16RoundRect,0.250000X-0.350000X-0.450000X0.350000X-0.450000X0.350000X0.450000X-0.350000X0.450000X0*%
%ADD17RoundRect,0.237500X0.237500X-0.300000X0.237500X0.300000X-0.237500X0.300000X-0.237500X-0.300000X0*%
%ADD18RoundRect,0.140000X0.560000X-0.660000X0.560000X0.660000X-0.560000X0.660000X-0.560000X-0.660000X0*%
%ADD19RoundRect,0.130000X-0.520000X-1.320000X0.520000X-1.320000X0.520000X1.320000X-0.520000X1.320000X0*%
%ADD20RoundRect,0.375000X1.500000X1.625000X-1.500000X1.625000X-1.500000X-1.625000X1.500000X-1.625000X0*%
%ADD21RoundRect,0.250000X1.000000X1.350000X-1.000000X1.350000X-1.000000X-1.350000X1.000000X-1.350000X0*%
%ADD22RoundRect,0.250000X-1.000000X-1.350000X1.000000X-1.350000X1.000000X1.350000X-1.000000X1.350000X0*%
%ADD23RoundRect,0.130000X-0.520000X-1.120000X0.520000X-1.120000X0.520000X1.120000X-0.520000X1.120000X0*%
%ADD24RoundRect,0.130000X0.520000X1.320000X-0.520000X1.320000X-0.520000X-1.320000X0.520000X-1.320000X0*%
%ADD25RoundRect,0.250000X0.450000X-0.350000X0.450000X0.350000X-0.450000X0.350000X-0.450000X-0.350000X0*%
%ADD26RoundRect,0.237500X-0.237500X0.300000X-0.237500X-0.300000X0.237500X-0.300000X0.237500X0.300000X0*%
%ADD27RoundRect,0.160000X0.640000X1.340000X-0.640000X1.340000X-0.640000X-1.340000X0.640000X-1.340000X0*%
%ADD28RoundRect,0.160000X-1.340000X0.640000X-1.340000X-0.640000X1.340000X-0.640000X1.340000X0.640000X0*%
%ADD29RoundRect,0.035000X-0.140000X0.465000X-0.140000X-0.465000X0.140000X-0.465000X0.140000X0.465000X0*%
%ADD30R,0.700000X0.600000*%
%ADD31RoundRect,0.250000X0.270000X0.270000X-0.270000X0.270000X-0.270000X-0.270000X0.270000X-0.270000X0*%
%ADD32RoundRect,0.062500X0.375000X0.062500X-0.375000X0.062500X-0.375000X-0.062500X0.375000X-0.062500X0*%
%ADD33RoundRect,0.062500X0.062500X0.375000X-0.062500X0.375000X-0.062500X-0.375000X0.062500X-0.375000X0*%
%ADD34RoundRect,0.250000X-0.250000X-0.500000X0.250000X-0.500000X0.250000X0.500000X-0.250000X0.500000X0*%
%ADD35R,1.150000X0.300000*%
%ADD36RoundRect,0.140000X0.660000X0.560000X-0.660000X0.560000X-0.660000X-0.560000X0.660000X-0.560000X0*%
%ADD37RoundRect,0.227500X-0.372500X-0.227500X0.372500X-0.227500X0.372500X0.227500X-0.372500X0.227500X0*%
%ADD38RoundRect,0.080000X-0.320000X-0.820000X0.320000X-0.820000X0.320000X0.820000X-0.320000X0.820000X0*%
%ADD39RoundRect,0.075000X-0.075000X-0.725000X0.075000X-0.725000X0.075000X0.725000X-0.075000X0.725000X0*%
%ADD40RoundRect,0.072500X0.377500X0.072500X-0.377500X0.072500X-0.377500X-0.072500X0.377500X-0.072500X0*%
%ADD41RoundRect,0.072500X-0.072500X0.377500X-0.072500X-0.377500X0.072500X-0.377500X0.072500X0.377500X0*%
%ADD42RoundRect,0.150000X1.350000X1.350000X-1.350000X1.350000X-1.350000X-1.350000X1.350000X-1.350000X0*%
%ADD43R,1.300000X0.900000*%
%ADD44FreePoly0,180.000000*%
G04 APERTURE END LIST*
D10*
%TO.C,D8*%
X218610000Y-51400000D03*
X218610000Y-54600000D03*
X223410000Y-54600000D03*
X223410000Y-51400000D03*
%TD*%
D11*
%TO.C,D20*%
X11900000Y-49580000D03*
X15100000Y-49580000D03*
X15100000Y-44780000D03*
X11900000Y-44780000D03*
%TD*%
D12*
%TO.C,R11*%
X58120000Y-20940000D03*
X56120000Y-20940000D03*
%TD*%
D13*
%TO.C,R77*%
X32590000Y-50610000D03*
X32590000Y-52610000D03*
%TD*%
D14*
%TO.C,C32*%
X206057500Y-99550000D03*
X207782500Y-99550000D03*
%TD*%
D15*
%TO.C,C50*%
X241095000Y-101400000D03*
X239370000Y-101400000D03*
%TD*%
D11*
%TO.C,D23*%
X11900000Y-83700000D03*
X15100000Y-83700000D03*
X15100000Y-78900000D03*
X11900000Y-78900000D03*
%TD*%
D14*
%TO.C,C56*%
X11887500Y-68480000D03*
X13612500Y-68480000D03*
%TD*%
D16*
%TO.C,R8*%
X95825000Y-113825000D03*
X97825000Y-113825000D03*
%TD*%
%TO.C,R32*%
X206140000Y-11690000D03*
X208140000Y-11690000D03*
%TD*%
D15*
%TO.C,C8*%
X58142500Y-47790000D03*
X56417500Y-47790000D03*
%TD*%
D12*
%TO.C,R79*%
X32600000Y-47730000D03*
X30600000Y-47730000D03*
%TD*%
D14*
%TO.C,C16*%
X206077500Y-4130000D03*
X207802500Y-4130000D03*
%TD*%
%TO.C,C25*%
X205937500Y-122630000D03*
X207662500Y-122630000D03*
%TD*%
D16*
%TO.C,R33*%
X206127500Y-32600000D03*
X208127500Y-32600000D03*
%TD*%
D11*
%TO.C,D18*%
X11900000Y-32640000D03*
X15100000Y-32640000D03*
X15100000Y-27840000D03*
X11900000Y-27840000D03*
%TD*%
D17*
%TO.C,C1*%
X79870000Y-116402500D03*
X79870000Y-114677500D03*
%TD*%
D14*
%TO.C,C22*%
X206087500Y-78880000D03*
X207812500Y-78880000D03*
%TD*%
D18*
%TO.C,SW17*%
X27250000Y-25960000D03*
X27250000Y-17560000D03*
X31750000Y-17560000D03*
X31750000Y-25960000D03*
X29500000Y-25960000D03*
%TD*%
D11*
%TO.C,D24*%
X21400000Y-92170000D03*
X24600000Y-92170000D03*
X24600000Y-87370000D03*
X21400000Y-87370000D03*
%TD*%
D16*
%TO.C,R62*%
X206120000Y-93940000D03*
X208120000Y-93940000D03*
%TD*%
D19*
%TO.C,SW3*%
X42500000Y-46300000D03*
X47500000Y-46300000D03*
D20*
X39000000Y-39250000D03*
D21*
X40000000Y-31850000D03*
X50000000Y-31850000D03*
D22*
X50000000Y-46650000D03*
D23*
X45000000Y-46500000D03*
D20*
X51000000Y-39250000D03*
D22*
X40000000Y-46650000D03*
D24*
X42500000Y-32200000D03*
X47500000Y-32200000D03*
%TD*%
D15*
%TO.C,C36*%
X36362500Y-2430000D03*
X34637500Y-2430000D03*
%TD*%
D12*
%TO.C,R21*%
X58140000Y-93970000D03*
X56140000Y-93970000D03*
%TD*%
D15*
%TO.C,C49*%
X241112500Y-76490000D03*
X239387500Y-76490000D03*
%TD*%
D16*
%TO.C,R51*%
X206120000Y-22500000D03*
X208120000Y-22500000D03*
%TD*%
D14*
%TO.C,C31*%
X206107500Y-65380000D03*
X207832500Y-65380000D03*
%TD*%
D25*
%TO.C,R78*%
X32590000Y-56320000D03*
X32590000Y-54320000D03*
%TD*%
D19*
%TO.C,SW5*%
X42500000Y-96300000D03*
X47500000Y-96300000D03*
D22*
X50000000Y-96650000D03*
D20*
X39000000Y-89250000D03*
D22*
X40000000Y-96650000D03*
D23*
X45000000Y-96500000D03*
D21*
X50000000Y-81850000D03*
D20*
X51000000Y-89250000D03*
D21*
X40000000Y-81850000D03*
D24*
X42500000Y-82200000D03*
X47500000Y-82200000D03*
%TD*%
D16*
%TO.C,R46*%
X206030000Y-118970000D03*
X208030000Y-118970000D03*
%TD*%
%TO.C,R35*%
X206127500Y-30670000D03*
X208127500Y-30670000D03*
%TD*%
D15*
%TO.C,C42*%
X216105000Y-26430000D03*
X214380000Y-26430000D03*
%TD*%
%TO.C,C46*%
X240882500Y-2100000D03*
X239157500Y-2100000D03*
%TD*%
D14*
%TO.C,C51*%
X11887500Y-17530000D03*
X13612500Y-17530000D03*
%TD*%
D10*
%TO.C,D9*%
X218680000Y-76410000D03*
X218680000Y-79610000D03*
X223480000Y-79610000D03*
X223480000Y-76410000D03*
%TD*%
D26*
%TO.C,C2*%
X59560000Y-104797500D03*
X59560000Y-106522500D03*
%TD*%
D19*
%TO.C,SW16*%
X243500000Y-121310000D03*
X248500000Y-121310000D03*
D22*
X251000000Y-121660000D03*
D23*
X246000000Y-121510000D03*
D22*
X241000000Y-121660000D03*
D20*
X252000000Y-114260000D03*
D21*
X241000000Y-106860000D03*
D20*
X240000000Y-114260000D03*
D21*
X251000000Y-106860000D03*
D24*
X243500000Y-107210000D03*
X248500000Y-107210000D03*
%TD*%
D16*
%TO.C,R57*%
X206180000Y-71020000D03*
X208180000Y-71020000D03*
%TD*%
%TO.C,R36*%
X206097500Y-36440000D03*
X208097500Y-36440000D03*
%TD*%
D27*
%TO.C,J6*%
X2210000Y-41750000D03*
X14610000Y-41750000D03*
X6910000Y-35750000D03*
X5110000Y-41750000D03*
D28*
X17810000Y-37950000D03*
%TD*%
D16*
%TO.C,R53*%
X206097500Y-46020000D03*
X208097500Y-46020000D03*
%TD*%
%TO.C,R41*%
X206120000Y-82520000D03*
X208120000Y-82520000D03*
%TD*%
%TO.C,R49*%
X206120000Y-20590000D03*
X208120000Y-20590000D03*
%TD*%
%TO.C,R5*%
X95865000Y-117255000D03*
X97865000Y-117255000D03*
%TD*%
D10*
%TO.C,D6*%
X218600000Y-1640000D03*
X218600000Y-4840000D03*
X223400000Y-4840000D03*
X223400000Y-1640000D03*
%TD*%
D19*
%TO.C,SW9*%
X218500000Y-71300000D03*
X223500000Y-71300000D03*
D20*
X215000000Y-64250000D03*
D21*
X216000000Y-56850000D03*
D23*
X221000000Y-71500000D03*
D22*
X216000000Y-71650000D03*
D20*
X227000000Y-64250000D03*
D22*
X226000000Y-71650000D03*
D21*
X226000000Y-56850000D03*
D24*
X218500000Y-57200000D03*
X223500000Y-57200000D03*
%TD*%
D19*
%TO.C,SW7*%
X218500000Y-21310000D03*
X223500000Y-21310000D03*
D22*
X216000000Y-21660000D03*
D21*
X216000000Y-6860000D03*
D23*
X221000000Y-21510000D03*
D20*
X215000000Y-14260000D03*
X227000000Y-14260000D03*
D22*
X226000000Y-21660000D03*
D21*
X226000000Y-6860000D03*
D24*
X218500000Y-7210000D03*
X223500000Y-7210000D03*
%TD*%
D12*
%TO.C,R13*%
X58100000Y-44100000D03*
X56100000Y-44100000D03*
%TD*%
D29*
%TO.C,U7*%
X91425000Y-105870000D03*
X90775000Y-105870000D03*
X90125000Y-105870000D03*
X89475000Y-105870000D03*
X89475000Y-111870000D03*
X90125000Y-111870000D03*
X90775000Y-111870000D03*
X91425000Y-111870000D03*
%TD*%
D16*
%TO.C,R65*%
X206100000Y-106390000D03*
X208100000Y-106390000D03*
%TD*%
D12*
%TO.C,R27*%
X58140000Y-120830000D03*
X56140000Y-120830000D03*
%TD*%
D25*
%TO.C,R4*%
X103585000Y-114735000D03*
X103585000Y-112735000D03*
%TD*%
D14*
%TO.C,C33*%
X206067500Y-90230000D03*
X207792500Y-90230000D03*
%TD*%
D15*
%TO.C,C14*%
X58192500Y-122550000D03*
X56467500Y-122550000D03*
%TD*%
D25*
%TO.C,R7*%
X117640000Y-116100000D03*
X117640000Y-114100000D03*
%TD*%
D16*
%TO.C,R66*%
X206080000Y-108310000D03*
X208080000Y-108310000D03*
%TD*%
D15*
%TO.C,C7*%
X58182500Y-13400000D03*
X56457500Y-13400000D03*
%TD*%
D14*
%TO.C,C29*%
X206055000Y-40420000D03*
X207780000Y-40420000D03*
%TD*%
D16*
%TO.C,R42*%
X206120000Y-84440000D03*
X208120000Y-84440000D03*
%TD*%
D12*
%TO.C,R69*%
X72880000Y-99950000D03*
X70880000Y-99950000D03*
%TD*%
D30*
%TO.C,D29*%
X22360000Y-51800000D03*
X22360000Y-53200000D03*
%TD*%
D14*
%TO.C,C19*%
X206025000Y-38150000D03*
X207750000Y-38150000D03*
%TD*%
D30*
%TO.C,D28*%
X22410000Y-61000000D03*
X22410000Y-62400000D03*
%TD*%
D16*
%TO.C,R43*%
X206130000Y-80600000D03*
X208130000Y-80600000D03*
%TD*%
D31*
%TO.C,U1*%
X79000000Y-110680000D03*
X80290000Y-109390000D03*
X77710000Y-108100000D03*
X77710000Y-110680000D03*
X80290000Y-106810000D03*
X80290000Y-108100000D03*
X77710000Y-109390000D03*
X79000000Y-109390000D03*
X79000000Y-106810000D03*
X80290000Y-110680000D03*
X81580000Y-106810000D03*
X81580000Y-108100000D03*
X77710000Y-106810000D03*
X81580000Y-110680000D03*
X79000000Y-108100000D03*
X81580000Y-109390000D03*
D32*
X83082500Y-111495000D03*
X83082500Y-110995000D03*
X83082500Y-110495000D03*
X83082500Y-109995000D03*
X83082500Y-109495000D03*
X83082500Y-108995000D03*
X83082500Y-108495000D03*
X83082500Y-107995000D03*
X83082500Y-107495000D03*
X83082500Y-106995000D03*
X83082500Y-106495000D03*
X83082500Y-105995000D03*
D33*
X82395000Y-105307500D03*
X81895000Y-105307500D03*
X81395000Y-105307500D03*
X80895000Y-105307500D03*
X80395000Y-105307500D03*
X79895000Y-105307500D03*
X79395000Y-105307500D03*
X78895000Y-105307500D03*
X78395000Y-105307500D03*
X77895000Y-105307500D03*
X77395000Y-105307500D03*
X76895000Y-105307500D03*
D32*
X76207500Y-105995000D03*
X76207500Y-106495000D03*
X76207500Y-106995000D03*
X76207500Y-107495000D03*
X76207500Y-107995000D03*
X76207500Y-108495000D03*
X76207500Y-108995000D03*
X76207500Y-109495000D03*
X76207500Y-109995000D03*
X76207500Y-110495000D03*
X76207500Y-110995000D03*
X76207500Y-111495000D03*
D33*
X76895000Y-112182500D03*
X77395000Y-112182500D03*
X77895000Y-112182500D03*
X78395000Y-112182500D03*
X78895000Y-112182500D03*
X79395000Y-112182500D03*
X79895000Y-112182500D03*
X80395000Y-112182500D03*
X80895000Y-112182500D03*
X81395000Y-112182500D03*
X81895000Y-112182500D03*
X82395000Y-112182500D03*
%TD*%
D27*
%TO.C,J7*%
X2200000Y-24750000D03*
X14600000Y-24750000D03*
X6900000Y-18750000D03*
X5100000Y-24750000D03*
D28*
X17800000Y-20950000D03*
%TD*%
D10*
%TO.C,D7*%
X218650000Y-26400000D03*
X218650000Y-29600000D03*
X223450000Y-29600000D03*
X223450000Y-26400000D03*
%TD*%
D16*
%TO.C,R61*%
X206110000Y-95890000D03*
X208110000Y-95890000D03*
%TD*%
D10*
%TO.C,D14*%
X243660000Y-76370000D03*
X243660000Y-79570000D03*
X248460000Y-79570000D03*
X248460000Y-76370000D03*
%TD*%
D34*
%TO.C,J1*%
X77050000Y-120400000D03*
X78550000Y-120400000D03*
X80050000Y-120400000D03*
X81550000Y-120400000D03*
X83050000Y-120400000D03*
%TD*%
D15*
%TO.C,C9*%
X58162500Y-38480000D03*
X56437500Y-38480000D03*
%TD*%
%TO.C,C10*%
X58182500Y-72710000D03*
X56457500Y-72710000D03*
%TD*%
D27*
%TO.C,J4*%
X2200000Y-92750000D03*
X14600000Y-92750000D03*
X6900000Y-86750000D03*
X5100000Y-92750000D03*
D28*
X17800000Y-88950000D03*
%TD*%
D35*
%TO.C,J2*%
X7440000Y-103300000D03*
X7440000Y-104100000D03*
X7440000Y-105400000D03*
X7440000Y-106400000D03*
X7440000Y-106900000D03*
X7440000Y-107900000D03*
X7440000Y-109200000D03*
X7440000Y-110000000D03*
X7440000Y-109700000D03*
X7440000Y-108900000D03*
X7440000Y-108400000D03*
X7440000Y-107400000D03*
X7440000Y-105900000D03*
X7440000Y-104900000D03*
X7440000Y-104400000D03*
X7440000Y-103600000D03*
%TD*%
D36*
%TO.C,SW23*%
X10100000Y-83550000D03*
X1700000Y-83550000D03*
X1700000Y-79050000D03*
X10100000Y-79050000D03*
X10100000Y-81300000D03*
%TD*%
D12*
%TO.C,R26*%
X58100000Y-116830000D03*
X56100000Y-116830000D03*
%TD*%
D14*
%TO.C,C18*%
X206065000Y-28960000D03*
X207790000Y-28960000D03*
%TD*%
D16*
%TO.C,R67*%
X206120000Y-104470000D03*
X208120000Y-104470000D03*
%TD*%
D11*
%TO.C,D17*%
X21400000Y-24140000D03*
X24600000Y-24140000D03*
X24600000Y-19340000D03*
X21400000Y-19340000D03*
%TD*%
D19*
%TO.C,SW4*%
X42510000Y-71300000D03*
X47510000Y-71300000D03*
D22*
X40010000Y-71650000D03*
D20*
X39010000Y-64250000D03*
D21*
X40010000Y-56850000D03*
D20*
X51010000Y-64250000D03*
D23*
X45010000Y-71500000D03*
D21*
X50010000Y-56850000D03*
D22*
X50010000Y-71650000D03*
D24*
X42510000Y-57200000D03*
X47510000Y-57200000D03*
%TD*%
D16*
%TO.C,R44*%
X206130000Y-86340000D03*
X208130000Y-86340000D03*
%TD*%
D15*
%TO.C,C11*%
X58262500Y-63390000D03*
X56537500Y-63390000D03*
%TD*%
%TO.C,C43*%
X216102500Y-51400000D03*
X214377500Y-51400000D03*
%TD*%
D16*
%TO.C,R58*%
X206180000Y-69060000D03*
X208180000Y-69060000D03*
%TD*%
D37*
%TO.C,U6*%
X24760000Y-50605000D03*
X24760000Y-51875000D03*
X24760000Y-53145000D03*
X24790000Y-54415000D03*
X30220000Y-54415000D03*
X30220000Y-53145000D03*
X30220000Y-51875000D03*
X30220000Y-50605000D03*
%TD*%
D16*
%TO.C,R63*%
X206120000Y-97830000D03*
X208120000Y-97830000D03*
%TD*%
D10*
%TO.C,D11*%
X243570000Y-1620000D03*
X243570000Y-4820000D03*
X248370000Y-4820000D03*
X248370000Y-1620000D03*
%TD*%
%TO.C,D4*%
X42600000Y-76410000D03*
X42600000Y-79610000D03*
X47400000Y-79610000D03*
X47400000Y-76410000D03*
%TD*%
D16*
%TO.C,R47*%
X206070000Y-115110000D03*
X208070000Y-115110000D03*
%TD*%
D15*
%TO.C,C39*%
X40242500Y-76380000D03*
X38517500Y-76380000D03*
%TD*%
D16*
%TO.C,R40*%
X206160000Y-61500000D03*
X208160000Y-61500000D03*
%TD*%
D38*
%TO.C,J8*%
X236950000Y-122000000D03*
D39*
X235280846Y-120200000D03*
D38*
X229050000Y-122000000D03*
D39*
X234755573Y-120200000D03*
X234250000Y-120200000D03*
X233755573Y-120200000D03*
X233255573Y-120200000D03*
X232750000Y-120200000D03*
X232224727Y-120200000D03*
X231719154Y-120200000D03*
X231224727Y-120200000D03*
X230724727Y-120200000D03*
X230724727Y-123800000D03*
X231224727Y-123800000D03*
X231719154Y-123800000D03*
X232224727Y-123800000D03*
X232750000Y-123800000D03*
X233255573Y-123800000D03*
X233755573Y-123800000D03*
X234250000Y-123800000D03*
X234755573Y-123800000D03*
X235280846Y-123800000D03*
%TD*%
D25*
%TO.C,R6*%
X122060000Y-116120000D03*
X122060000Y-114120000D03*
%TD*%
D17*
%TO.C,C5*%
X115910000Y-116172500D03*
X115910000Y-114447500D03*
%TD*%
D16*
%TO.C,R82*%
X22610000Y-30250000D03*
X24610000Y-30250000D03*
%TD*%
D12*
%TO.C,R24*%
X58170000Y-90050000D03*
X56170000Y-90050000D03*
%TD*%
D15*
%TO.C,C38*%
X40482500Y-51990000D03*
X38757500Y-51990000D03*
%TD*%
D12*
%TO.C,R18*%
X58160000Y-67050000D03*
X56160000Y-67050000D03*
%TD*%
D16*
%TO.C,R38*%
X206200000Y-59580000D03*
X208200000Y-59580000D03*
%TD*%
D12*
%TO.C,R28*%
X58100000Y-114870000D03*
X56100000Y-114870000D03*
%TD*%
D19*
%TO.C,SW8*%
X218500000Y-46310000D03*
X223500000Y-46310000D03*
D21*
X216000000Y-31860000D03*
D22*
X226000000Y-46660000D03*
D23*
X221000000Y-46510000D03*
D21*
X226000000Y-31860000D03*
D20*
X215000000Y-39260000D03*
X227000000Y-39260000D03*
D22*
X216000000Y-46660000D03*
D24*
X218500000Y-32210000D03*
X223500000Y-32210000D03*
%TD*%
D15*
%TO.C,C45*%
X215982500Y-101410000D03*
X214257500Y-101410000D03*
%TD*%
D16*
%TO.C,R68*%
X206080000Y-110210000D03*
X208080000Y-110210000D03*
%TD*%
D13*
%TO.C,R76*%
X20620000Y-50900000D03*
X20620000Y-52900000D03*
%TD*%
D14*
%TO.C,C55*%
X11887500Y-51430000D03*
X13612500Y-51430000D03*
%TD*%
D15*
%TO.C,C48*%
X241305000Y-51390000D03*
X239580000Y-51390000D03*
%TD*%
D36*
%TO.C,SW18*%
X10100000Y-32500000D03*
X1700000Y-32500000D03*
X10100000Y-28000000D03*
X1700000Y-28000000D03*
X10100000Y-30250000D03*
%TD*%
D13*
%TO.C,R3*%
X77020000Y-114930000D03*
X77020000Y-116930000D03*
%TD*%
D12*
%TO.C,R15*%
X58100000Y-46060000D03*
X56100000Y-46060000D03*
%TD*%
D10*
%TO.C,D12*%
X243680000Y-26390000D03*
X243680000Y-29590000D03*
X248480000Y-29590000D03*
X248480000Y-26390000D03*
%TD*%
D14*
%TO.C,C35*%
X206007500Y-111910000D03*
X207732500Y-111910000D03*
%TD*%
D15*
%TO.C,C57*%
X19712500Y-76280000D03*
X17987500Y-76280000D03*
%TD*%
D14*
%TO.C,C20*%
X206177500Y-54030000D03*
X207902500Y-54030000D03*
%TD*%
D10*
%TO.C,D2*%
X42600000Y-26370000D03*
X42600000Y-29570000D03*
X47400000Y-29570000D03*
X47400000Y-26370000D03*
%TD*%
D19*
%TO.C,SW6*%
X42500000Y-121310000D03*
X47500000Y-121310000D03*
D22*
X40000000Y-121660000D03*
D20*
X39000000Y-114260000D03*
D21*
X50000000Y-106860000D03*
D20*
X51000000Y-114260000D03*
D22*
X50000000Y-121660000D03*
D21*
X40000000Y-106860000D03*
D23*
X45000000Y-121510000D03*
D24*
X42500000Y-107210000D03*
X47500000Y-107210000D03*
%TD*%
D19*
%TO.C,SW2*%
X42510000Y-21300000D03*
X47510000Y-21300000D03*
D20*
X51010000Y-14250000D03*
X39010000Y-14250000D03*
D22*
X50010000Y-21650000D03*
D21*
X50010000Y-6850000D03*
X40010000Y-6850000D03*
D22*
X40010000Y-21650000D03*
D23*
X45010000Y-21500000D03*
D24*
X42510000Y-7200000D03*
X47510000Y-7200000D03*
%TD*%
D10*
%TO.C,D3*%
X42590000Y-51450000D03*
X42590000Y-54650000D03*
X47390000Y-54650000D03*
X47390000Y-51450000D03*
%TD*%
D15*
%TO.C,C47*%
X241102500Y-26430000D03*
X239377500Y-26430000D03*
%TD*%
D10*
%TO.C,D10*%
X218570000Y-101410000D03*
X218570000Y-104610000D03*
X223370000Y-104610000D03*
X223370000Y-101410000D03*
%TD*%
D14*
%TO.C,C3*%
X67197500Y-104110000D03*
X68922500Y-104110000D03*
%TD*%
D12*
%TO.C,R12*%
X58120000Y-15090000D03*
X56120000Y-15090000D03*
%TD*%
%TO.C,R16*%
X58090000Y-40220000D03*
X56090000Y-40220000D03*
%TD*%
D16*
%TO.C,R56*%
X206137500Y-42170000D03*
X208137500Y-42170000D03*
%TD*%
D14*
%TO.C,C27*%
X206067500Y-14970000D03*
X207792500Y-14970000D03*
%TD*%
D36*
%TO.C,SW1*%
X10100000Y-15480000D03*
X1700000Y-15480000D03*
X1700000Y-10980000D03*
X10100000Y-10980000D03*
X10100000Y-13230000D03*
%TD*%
D16*
%TO.C,R39*%
X206230000Y-55760000D03*
X208230000Y-55760000D03*
%TD*%
D12*
%TO.C,R75*%
X73940000Y-94890000D03*
X71940000Y-94890000D03*
%TD*%
D10*
%TO.C,D1*%
X42620000Y-1570000D03*
X42620000Y-4770000D03*
X47420000Y-4770000D03*
X47420000Y-1570000D03*
%TD*%
D12*
%TO.C,R23*%
X58140000Y-95930000D03*
X56140000Y-95930000D03*
%TD*%
%TO.C,R9*%
X58110000Y-18990000D03*
X56110000Y-18990000D03*
%TD*%
D16*
%TO.C,R59*%
X206190000Y-72990000D03*
X208190000Y-72990000D03*
%TD*%
D25*
%TO.C,R71*%
X20640000Y-63290000D03*
X20640000Y-61290000D03*
%TD*%
D40*
%TO.C,U4*%
X102775000Y-110105000D03*
X102775000Y-109605000D03*
X102775000Y-109105000D03*
X102775000Y-108605000D03*
X102775000Y-108105000D03*
X102775000Y-107605000D03*
X102775000Y-107105000D03*
X102775000Y-106605000D03*
D41*
X101975000Y-105805000D03*
X101475000Y-105805000D03*
X100975000Y-105805000D03*
X100475000Y-105805000D03*
X99975000Y-105805000D03*
X99475000Y-105805000D03*
X98975000Y-105805000D03*
X98475000Y-105805000D03*
D40*
X97675000Y-106605000D03*
X97675000Y-107105000D03*
X97675000Y-107605000D03*
X97675000Y-108105000D03*
X97675000Y-108605000D03*
X97675000Y-109105000D03*
X97675000Y-109605000D03*
X97675000Y-110105000D03*
D41*
X98475000Y-110955000D03*
X98975000Y-110955000D03*
X99475000Y-110955000D03*
X99975000Y-110955000D03*
X100475000Y-110955000D03*
X100975000Y-110955000D03*
X101475000Y-110955000D03*
X101975000Y-110955000D03*
D42*
X100225000Y-108355000D03*
%TD*%
D19*
%TO.C,SW15*%
X243500000Y-96290000D03*
X248500000Y-96290000D03*
D22*
X251000000Y-96640000D03*
D21*
X241000000Y-81840000D03*
D20*
X240000000Y-89240000D03*
D23*
X246000000Y-96490000D03*
D22*
X241000000Y-96640000D03*
D21*
X251000000Y-81840000D03*
D20*
X252000000Y-89240000D03*
D24*
X243500000Y-82190000D03*
X248500000Y-82190000D03*
%TD*%
D27*
%TO.C,J3*%
X2200000Y-75740000D03*
X14600000Y-75740000D03*
X6900000Y-69740000D03*
X5100000Y-75740000D03*
D28*
X17800000Y-71940000D03*
%TD*%
D15*
%TO.C,C12*%
X58202500Y-97660000D03*
X56477500Y-97660000D03*
%TD*%
D16*
%TO.C,R50*%
X206120000Y-18650000D03*
X208120000Y-18650000D03*
%TD*%
D10*
%TO.C,D5*%
X42530000Y-101400000D03*
X42530000Y-104600000D03*
X47330000Y-104600000D03*
X47330000Y-101400000D03*
%TD*%
D14*
%TO.C,C61*%
X21377500Y-110890000D03*
X23102500Y-110890000D03*
%TD*%
%TO.C,C34*%
X206077500Y-102760000D03*
X207802500Y-102760000D03*
%TD*%
D16*
%TO.C,R55*%
X206107500Y-47990000D03*
X208107500Y-47990000D03*
%TD*%
D12*
%TO.C,R20*%
X58180000Y-65100000D03*
X56180000Y-65100000D03*
%TD*%
D15*
%TO.C,C54*%
X21322500Y-43130000D03*
X19597500Y-43130000D03*
%TD*%
%TO.C,C6*%
X58182500Y-22650000D03*
X56457500Y-22650000D03*
%TD*%
D11*
%TO.C,D21*%
X11900000Y-66670000D03*
X15100000Y-66670000D03*
X15100000Y-61870000D03*
X11900000Y-61870000D03*
%TD*%
D19*
%TO.C,SW11*%
X218490000Y-121310000D03*
X223490000Y-121310000D03*
D22*
X215990000Y-121660000D03*
D21*
X215990000Y-106860000D03*
X225990000Y-106860000D03*
D22*
X225990000Y-121660000D03*
D20*
X226990000Y-114260000D03*
X214990000Y-114260000D03*
D23*
X220990000Y-121510000D03*
D24*
X218490000Y-107210000D03*
X223490000Y-107210000D03*
%TD*%
D16*
%TO.C,R34*%
X206107500Y-34540000D03*
X208107500Y-34540000D03*
%TD*%
D14*
%TO.C,C28*%
X206045000Y-49700000D03*
X207770000Y-49700000D03*
%TD*%
D25*
%TO.C,R73*%
X32580000Y-65590000D03*
X32580000Y-63590000D03*
%TD*%
D13*
%TO.C,R72*%
X32600000Y-59850000D03*
X32600000Y-61850000D03*
%TD*%
D12*
%TO.C,R19*%
X58140000Y-70960000D03*
X56140000Y-70960000D03*
%TD*%
D14*
%TO.C,C23*%
X206067500Y-88070000D03*
X207792500Y-88070000D03*
%TD*%
D16*
%TO.C,R45*%
X206050000Y-117040000D03*
X208050000Y-117040000D03*
%TD*%
D14*
%TO.C,C17*%
X206067500Y-13420000D03*
X207792500Y-13420000D03*
%TD*%
%TO.C,C59*%
X21377500Y-93940000D03*
X23102500Y-93940000D03*
%TD*%
D10*
%TO.C,D13*%
X243780000Y-51400000D03*
X243780000Y-54600000D03*
X248580000Y-54600000D03*
X248580000Y-51400000D03*
%TD*%
D16*
%TO.C,R30*%
X206140000Y-9760000D03*
X208140000Y-9760000D03*
%TD*%
D18*
%TO.C,SW19*%
X27250000Y-42960000D03*
X27250000Y-34560000D03*
X31750000Y-34560000D03*
X31750000Y-42960000D03*
X29500000Y-42960000D03*
%TD*%
D14*
%TO.C,C58*%
X11847500Y-85440000D03*
X13572500Y-85440000D03*
%TD*%
%TO.C,C52*%
X21417500Y-26110000D03*
X23142500Y-26110000D03*
%TD*%
D40*
%TO.C,U3*%
X121170000Y-110080000D03*
X121170000Y-109580000D03*
X121170000Y-109080000D03*
X121170000Y-108580000D03*
X121170000Y-108080000D03*
X121170000Y-107580000D03*
X121170000Y-107080000D03*
X121170000Y-106580000D03*
D41*
X120370000Y-105780000D03*
X119870000Y-105780000D03*
X119370000Y-105780000D03*
X118870000Y-105780000D03*
X118370000Y-105780000D03*
X117870000Y-105780000D03*
X117370000Y-105780000D03*
X116870000Y-105780000D03*
D40*
X116070000Y-106580000D03*
X116070000Y-107080000D03*
X116070000Y-107580000D03*
X116070000Y-108080000D03*
X116070000Y-108580000D03*
X116070000Y-109080000D03*
X116070000Y-109580000D03*
X116070000Y-110080000D03*
D41*
X116870000Y-110930000D03*
X117370000Y-110930000D03*
X117870000Y-110930000D03*
X118370000Y-110930000D03*
X118870000Y-110930000D03*
X119370000Y-110930000D03*
X119870000Y-110930000D03*
X120370000Y-110930000D03*
D42*
X118620000Y-108330000D03*
%TD*%
D18*
%TO.C,SW26*%
X27100000Y-110930000D03*
X27100000Y-102530000D03*
X31600000Y-110930000D03*
X31600000Y-102530000D03*
X29350000Y-110930000D03*
%TD*%
D16*
%TO.C,R52*%
X206140000Y-16700000D03*
X208140000Y-16700000D03*
%TD*%
D36*
%TO.C,SW27*%
X10100000Y-117780000D03*
X1700000Y-117780000D03*
X1700000Y-113280000D03*
X10100000Y-113280000D03*
X10100000Y-115530000D03*
%TD*%
%TO.C,SW20*%
X10100000Y-49510000D03*
X1700000Y-49510000D03*
X1700000Y-45010000D03*
X10100000Y-45010000D03*
X10100000Y-47260000D03*
%TD*%
D12*
%TO.C,R22*%
X58160000Y-92010000D03*
X56160000Y-92010000D03*
%TD*%
D11*
%TO.C,D22*%
X21400000Y-75190000D03*
X24600000Y-75190000D03*
X24600000Y-70390000D03*
X21400000Y-70390000D03*
%TD*%
D43*
%TO.C,U2*%
X64960000Y-107140000D03*
D44*
X64872500Y-105640000D03*
D43*
X64960000Y-104140000D03*
%TD*%
D14*
%TO.C,C62*%
X11857500Y-119470000D03*
X13582500Y-119470000D03*
%TD*%
D19*
%TO.C,SW10*%
X218500000Y-96310000D03*
X223500000Y-96310000D03*
D21*
X226000000Y-81860000D03*
D20*
X227000000Y-89260000D03*
D22*
X216000000Y-96660000D03*
X226000000Y-96660000D03*
D23*
X221000000Y-96510000D03*
D21*
X216000000Y-81860000D03*
D20*
X215000000Y-89260000D03*
D24*
X218500000Y-82210000D03*
X223500000Y-82210000D03*
%TD*%
D15*
%TO.C,C41*%
X215932500Y-1900000D03*
X214207500Y-1900000D03*
%TD*%
D10*
%TO.C,D15*%
X243610000Y-101390000D03*
X243610000Y-104590000D03*
X248410000Y-104590000D03*
X248410000Y-101390000D03*
%TD*%
D14*
%TO.C,C4*%
X94122500Y-115565000D03*
X95847500Y-115565000D03*
%TD*%
D11*
%TO.C,D26*%
X21400000Y-109150000D03*
X24600000Y-109150000D03*
X24600000Y-104350000D03*
X21400000Y-104350000D03*
%TD*%
D14*
%TO.C,C60*%
X11877500Y-102400000D03*
X13602500Y-102400000D03*
%TD*%
D15*
%TO.C,C44*%
X216282500Y-76420000D03*
X214557500Y-76420000D03*
%TD*%
D13*
%TO.C,R1*%
X88260000Y-116110000D03*
X88260000Y-118110000D03*
%TD*%
D25*
%TO.C,R2*%
X90210000Y-118100000D03*
X90210000Y-116100000D03*
%TD*%
D16*
%TO.C,R81*%
X26810000Y-47690000D03*
X28810000Y-47690000D03*
%TD*%
D14*
%TO.C,C30*%
X206147500Y-74740000D03*
X207872500Y-74740000D03*
%TD*%
D12*
%TO.C,R80*%
X73800000Y-91640000D03*
X71800000Y-91640000D03*
%TD*%
D15*
%TO.C,C37*%
X40622500Y-26360000D03*
X38897500Y-26360000D03*
%TD*%
D12*
%TO.C,R17*%
X58140000Y-69010000D03*
X56140000Y-69010000D03*
%TD*%
%TO.C,R14*%
X58100000Y-42170000D03*
X56100000Y-42170000D03*
%TD*%
D11*
%TO.C,D25*%
X11900000Y-100700000D03*
X15100000Y-100700000D03*
X15100000Y-95900000D03*
X11900000Y-95900000D03*
%TD*%
D16*
%TO.C,R29*%
X206140000Y-7820000D03*
X208140000Y-7820000D03*
%TD*%
D14*
%TO.C,C26*%
X206057500Y-24230000D03*
X207782500Y-24230000D03*
%TD*%
%TO.C,C21*%
X206097500Y-63200000D03*
X207822500Y-63200000D03*
%TD*%
D16*
%TO.C,R70*%
X17770000Y-117800000D03*
X19770000Y-117800000D03*
%TD*%
%TO.C,R64*%
X206130000Y-91980000D03*
X208130000Y-91980000D03*
%TD*%
%TO.C,R60*%
X206180000Y-67110000D03*
X208180000Y-67110000D03*
%TD*%
%TO.C,R54*%
X206157500Y-44120000D03*
X208157500Y-44120000D03*
%TD*%
D11*
%TO.C,D27*%
X11900000Y-117650000D03*
X15100000Y-117650000D03*
X15100000Y-112850000D03*
X11900000Y-112850000D03*
%TD*%
D19*
%TO.C,SW14*%
X243760000Y-71530000D03*
X248760000Y-71530000D03*
D22*
X241260000Y-71880000D03*
D20*
X240260000Y-64480000D03*
X252260000Y-64480000D03*
D22*
X251260000Y-71880000D03*
D23*
X246260000Y-71730000D03*
D21*
X241260000Y-57080000D03*
X251260000Y-57080000D03*
D24*
X243760000Y-57430000D03*
X248760000Y-57430000D03*
%TD*%
D36*
%TO.C,SW25*%
X10100000Y-100250000D03*
X1700000Y-100250000D03*
X10100000Y-95750000D03*
X1700000Y-95750000D03*
X10100000Y-98000000D03*
%TD*%
D16*
%TO.C,R37*%
X206230000Y-57670000D03*
X208230000Y-57670000D03*
%TD*%
D11*
%TO.C,D16*%
X11900000Y-15640000D03*
X15100000Y-15640000D03*
X15100000Y-10840000D03*
X11900000Y-10840000D03*
%TD*%
D16*
%TO.C,R74*%
X23050000Y-47720000D03*
X25050000Y-47720000D03*
%TD*%
D37*
%TO.C,U5*%
X24580000Y-59795000D03*
X24580000Y-61065000D03*
X24580000Y-62335000D03*
X24610000Y-63605000D03*
X30040000Y-63605000D03*
X30040000Y-62335000D03*
X30040000Y-61065000D03*
X30040000Y-59795000D03*
%TD*%
D12*
%TO.C,R10*%
X58120000Y-17030000D03*
X56120000Y-17030000D03*
%TD*%
D16*
%TO.C,R31*%
X206140000Y-5870000D03*
X208140000Y-5870000D03*
%TD*%
D12*
%TO.C,R25*%
X58140000Y-118860000D03*
X56140000Y-118860000D03*
%TD*%
D15*
%TO.C,C15*%
X58162500Y-113120000D03*
X56437500Y-113120000D03*
%TD*%
D19*
%TO.C,SW13*%
X243510000Y-46290000D03*
X248510000Y-46290000D03*
D23*
X246010000Y-46490000D03*
D22*
X241010000Y-46640000D03*
D20*
X240010000Y-39240000D03*
D21*
X251010000Y-31840000D03*
X241010000Y-31840000D03*
D20*
X252010000Y-39240000D03*
D22*
X251010000Y-46640000D03*
D24*
X243510000Y-32190000D03*
X248510000Y-32190000D03*
%TD*%
D27*
%TO.C,J5*%
X2200000Y-58760000D03*
X14600000Y-58760000D03*
X6900000Y-52760000D03*
X5100000Y-58760000D03*
D28*
X17800000Y-54960000D03*
%TD*%
D15*
%TO.C,C40*%
X40362500Y-101400000D03*
X38637500Y-101400000D03*
%TD*%
D16*
%TO.C,R48*%
X206010000Y-120910000D03*
X208010000Y-120910000D03*
%TD*%
D19*
%TO.C,SW12*%
X243500000Y-21300000D03*
X248500000Y-21300000D03*
D22*
X251000000Y-21650000D03*
D20*
X252000000Y-14250000D03*
D23*
X246000000Y-21500000D03*
D20*
X240000000Y-14250000D03*
D22*
X241000000Y-21650000D03*
D21*
X241000000Y-6850000D03*
X251000000Y-6850000D03*
D24*
X243500000Y-7200000D03*
X248500000Y-7200000D03*
%TD*%
D11*
%TO.C,D19*%
X21400000Y-41140000D03*
X24600000Y-41140000D03*
X24600000Y-36340000D03*
X21400000Y-36340000D03*
%TD*%
D15*
%TO.C,C13*%
X58232500Y-88320000D03*
X56507500Y-88320000D03*
%TD*%
D36*
%TO.C,SW21*%
X10100000Y-66510000D03*
X1700000Y-66510000D03*
X10100000Y-62010000D03*
X1700000Y-62010000D03*
X10100000Y-64260000D03*
%TD*%
D18*
%TO.C,SW22*%
X27250000Y-76950000D03*
X27250000Y-68550000D03*
X31750000Y-76950000D03*
X31750000Y-68550000D03*
X29500000Y-76950000D03*
%TD*%
D14*
%TO.C,C24*%
X206017500Y-113410000D03*
X207742500Y-113410000D03*
%TD*%
D18*
%TO.C,SW24*%
X27250000Y-93990000D03*
X27250000Y-85590000D03*
X31750000Y-93990000D03*
X31750000Y-85590000D03*
X29500000Y-93990000D03*
%TD*%
D14*
%TO.C,C53*%
X11897500Y-34630000D03*
X13622500Y-34630000D03*
%TD*%
M02*
