M48
; DRILL file {KiCad (6.0.9)} date Thu Mar 16 14:55:23 2023
; FORMAT={-:-/ absolute / inch / decimal}
; #@! TF.CreationDate,2023-03-16T14:55:23+00:00
; #@! TF.GenerationSoftware,Kicad,Pcbnew,(6.0.9)
; #@! TF.FileFunction,MixedPlating,1,2
FMAT,2
INCH
; #@! TA.AperFunction,Plated,PTH,ViaDrill
T1C0.0157
; #@! TA.AperFunction,Plated,PTH,ComponentDrill
T2C0.0236
; #@! TA.AperFunction,NonPlated,NPTH,ComponentDrill
T3C0.0256
%
G90
G05
T1
X0.1276Y-1.2799
X0.1283Y-0.6134
X0.1315Y-4.6374
X0.1406Y-3.9496
X0.1516Y-1.4094
X0.2028Y-1.4138
X0.2106Y-3.2894
X0.2126Y-3.4142
X0.2331Y-2.6185
X0.2819Y-1.9492
X0.3343Y-2.0795
X0.4126Y-1.6441
X0.4126Y-2.7476
X0.4677Y-0.372
X0.4681Y-4.3862
X0.4709Y-3.7173
X0.4713Y-1.0343
X0.4713Y-4.1591
X0.5291Y-2.7555
X0.5315Y-3.9583
X0.6197Y-4.3079
X0.6382Y-3.6516
X0.6386Y-3.9618
X0.6398Y-2.6189
X0.7252Y-2.078
X0.8374Y-4.0559
X0.8441Y-2.7189
X0.8575Y-1.878
X0.9327Y-3.7598
X0.9732Y-4.3618
X0.9772Y-1.0063
X1.0453Y-0.8488
X1.0583Y-1.8024
X1.0728Y-1.4492
X1.274Y-1.1953
X1.2768Y-1.8067
X1.3315Y-4.1161
X1.3575Y-2.0701
X1.4768Y-2.6831
X1.5866Y-2.1272
X1.6224Y-3.1173
X1.722Y-1.2689
X1.725Y-4.2219
X1.7555Y-4.1398
X1.7988Y-3.0071
X1.8191Y-3.9553
X1.8457Y-2.702
X2.1197Y-2.9213
X2.1307Y-0.4024
X2.1602Y-2.9539
X2.2118Y-2.3587
X2.2717Y-4.3581
X2.2795Y-3.3646
X2.3311Y-3.3264
X2.3386Y-4.5205
X2.3437Y-1.8118
X2.3445Y-0.8988
X2.3472Y-1.5815
X2.3516Y-3.7453
X2.3602Y-2.7937
X2.3685Y-3.5744
X2.3697Y-2.563
X2.3933Y-0.4024
X2.4949Y-0.8169
X2.4949Y-4.4429
X2.5598Y-4.01
X2.5598Y-4.0559
X2.565Y-4.4429
X2.5776Y-4.5579
X2.5862Y-0.9378
X2.6244Y-2.9165
X2.6299Y-1.4858
X2.6559Y-3.8898
X2.6917Y-1.6224
X2.6992Y-2.9528
X2.7059Y-3.1173
X2.7193Y-1.9819
X2.7213Y-2.0343
X2.722Y-2.1421
X2.728Y-2.2831
X2.7291Y-2.3264
X2.7756Y-3.7374
X2.8264Y-3.4134
X2.8291Y-4.4736
X2.9091Y-3.3701
X2.9094Y-4.2122
X2.9142Y-4.2969
X2.9185Y-4.2575
X2.9398Y-4.1598
X2.9492Y-3.8799
X2.9512Y-4.1992
X2.9764Y-4.1106
X2.9835Y-3.8461
X2.989Y-4.7378
X3.0059Y-3.1457
X3.0557Y-4.0736
X3.085Y-4.2374
X3.1094Y-3.9201
X3.1335Y-4.2831
X3.1457Y-4.6465
X3.148Y-3.6394
X3.1693Y-4.0706
X3.185Y-4.3354
X3.278Y-4.6398
X3.2957Y-2.3587
X3.3205Y-4.1354
X3.3224Y-4.178
X3.3417Y-4.7555
X3.3571Y-4.6382
X3.3895Y-4.3111
X3.3937Y-4.2689
X3.4197Y-4.6413
X3.4197Y-4.813
X3.4776Y-4.4955
X3.528Y-4.524
X3.5618Y-4.3126
X3.5669Y-4.4567
X3.6386Y-4.5083
X3.7236Y-4.4224
X3.7394Y-3.6689
X3.752Y-4.2591
X3.7774Y-3.926
X3.7791Y-3.1335
X3.8622Y-3.9445
X3.8976Y-3.1783
X3.913Y-4.6398
X3.9354Y-3.7661
X3.9453Y-4.2224
X3.9461Y-4.2996
X3.9528Y-3.9815
X3.9756Y-4.6075
X4.0055Y-3.7958
X4.011Y-4.1118
X4.0417Y-3.6244
X4.0559Y-3.3382
X4.1571Y-4.1858
X4.1587Y-4.2272
X4.178Y-3.1362
X4.2008Y-3.7067
X4.2031Y-4.3685
X4.2094Y-4.3287
X4.213Y-3.1622
X4.2343Y-3.737
X4.3917Y-4.6671
X4.4154Y-3.2303
X4.4646Y-3.2705
X4.4683Y-4.0706
X4.501Y-4.1004
X4.5028Y-4.6945
X4.5803Y-4.7348
X4.598Y-3.5886
X4.6118Y-3.8457
X4.6268Y-3.6287
X4.6437Y-4.6386
X4.6441Y-4.2591
X4.6524Y-4.022
X4.6673Y-3.4949
X4.6815Y-4.0485
X4.6969Y-4.6382
X4.6976Y-3.4433
X4.6976Y-4.2583
X4.7953Y-3.2122
X4.8Y-3.2685
X4.8194Y-4.3688
X4.8246Y-4.203
X4.8686Y-4.3664
X4.8803Y-3.5839
X4.8819Y-4.1811
X4.8846Y-3.6287
X4.9083Y-4.3657
X4.9313Y-4.5203
X4.9445Y-3.2583
X4.9527Y-4.3636
X4.972Y-4.4917
X5.0035Y-4.1811
X5.0154Y-4.0693
X5.0165Y-4.1106
X5.0217Y-3.2774
X5.0335Y-3.7016
X5.037Y-4.2094
X5.0736Y-4.2366
X5.0764Y-3.7075
X5.1154Y-2.961
X5.122Y-3.715
X5.1321Y-4.2545
X5.1335Y-4.1945
X5.1358Y-3.9138
X5.1732Y-3.7126
X5.1862Y-3.9303
X5.2063Y-3.4933
X5.2071Y-3.4516
X5.2094Y-3.5831
X5.2094Y-3.628
X5.2157Y-4.1805
X5.252Y-4.152
X5.326Y-4.0122
X5.3598Y-3.9837
X6.9232Y-0.461
X7.0961Y-0.4602
X7.4193Y-0.7787
X7.4228Y-0.5638
X7.4272Y-0.3433
X7.7417Y-4.7516
X7.7909Y-4.4575
X7.9224Y-3.9492
X7.9224Y-4.2055
X7.9264Y-4.3437
X8.0276Y-4.4437
X8.0327Y-4.7606
X8.0539Y-0.8114
X8.0539Y-1.8134
X8.0547Y-4.2752
X8.0551Y-3.3244
X8.0555Y-0.3858
X8.0555Y-1.3602
X8.0555Y-2.3461
X8.0555Y-3.7728
X8.0559Y-2.7965
X8.2752Y-4.1543
X8.3138Y-1.7193
X8.3181Y-1.998
X8.337Y-4.7193
X8.3681Y-3.7311
X8.5961Y-4.6551
X8.6146Y-2.6965
X8.6161Y-1.711
X8.6299Y-3.6764
X8.6634Y-1.1638
X8.665Y-0.1898
X8.6661Y-2.1516
X8.6677Y-3.1323
X8.6732Y-4.1193
X8.8512Y-0.0945
X8.8571Y-3.9913
X8.8575Y-2.0224
X8.8626Y-3.0071
X8.865Y-1.037
X8.9012Y-4.6547
X9.0567Y-4.674
X9.0886Y-4.7984
X9.1071Y-4.5362
X9.148Y-4.9354
X9.151Y-4.5667
X9.1724Y-4.5063
X9.1972Y-0.6346
X9.2Y-0.2583
X9.2008Y-1.0346
X9.2028Y-4.4795
X9.2043Y-1.25
X9.2043Y-3.0193
X9.2118Y-2.228
X9.2154Y-3.9862
X9.2189Y-3.7189
X9.2205Y-4.228
X9.2425Y-4.8035
X9.2622Y-4.9339
X9.3224Y-4.4457
X9.326Y-4.2803
X9.3272Y-4.7303
X9.3906Y-4.9287
X9.528Y-4.1094
X9.6445Y-0.1898
X9.6496Y-3.1311
X9.6516Y-1.161
X9.6602Y-2.1496
X9.7228Y-0.1193
X9.8417Y-3.9898
X9.8504Y-3.0079
X9.852Y-2.0228
X9.8539Y-1.0378
T3
X0.251Y-4.085
X0.251Y-4.3126
T2
G00X0.1179Y-4.0287
M15
G01X0.0943Y-4.0287
M16
G05
G00X0.1179Y-4.3689
M15
G01X0.0943Y-4.3689
M16
G05
G00X0.2923Y-4.0287
M15
G01X0.249Y-4.0287
M16
G05
G00X0.2923Y-4.3689
M15
G01X0.249Y-4.3689
M16
G05
T0
M30
