%TF.GenerationSoftware,KiCad,Pcbnew,(6.0.9)*%
%TF.CreationDate,2023-03-16T14:55:21+00:00*%
%TF.ProjectId,Matrix_V2_Base,4d617472-6978-45f5-9632-5f426173652e,rev?*%
%TF.SameCoordinates,Original*%
%TF.FileFunction,Profile,NP*%
%FSLAX46Y46*%
G04 Gerber Fmt 4.6, Leading zero omitted, Abs format (unit mm)*
G04 Created by KiCad (PCBNEW (6.0.9)) date 2023-03-16 14:55:21*
%MOMM*%
%LPD*%
G01*
G04 APERTURE LIST*
%TA.AperFunction,Profile*%
%ADD10C,0.150000*%
%TD*%
%TA.AperFunction,Profile*%
%ADD11C,0.050000*%
%TD*%
%TA.AperFunction,Profile*%
%ADD12C,0.100000*%
%TD*%
%TA.AperFunction,Profile*%
%ADD13C,0.355000*%
%TD*%
G04 APERTURE END LIST*
D10*
X254060000Y-125500000D02*
G75*
G03*
X254060000Y-125500000I-1600000J0D01*
G01*
X256000000Y-3000000D02*
G75*
G03*
X253000000Y0I-3000000J0D01*
G01*
X132140000Y-125500000D02*
G75*
G03*
X132140000Y-125500000I-1600000J0D01*
G01*
X253000000Y0D02*
X3000000Y0D01*
X0Y-125500000D02*
G75*
G03*
X3000000Y-128500000I3000000J0D01*
G01*
X3000000Y-128500000D02*
X253000000Y-128500000D01*
X256000000Y-125500000D02*
X256000000Y-3000000D01*
X253000000Y-128500000D02*
G75*
G03*
X256000000Y-125500000I0J3000000D01*
G01*
X5140000Y-125500000D02*
G75*
G03*
X5140000Y-125500000I-1600000J0D01*
G01*
X0Y-3000000D02*
X0Y-125500000D01*
X132140000Y-3000000D02*
G75*
G03*
X132140000Y-3000000I-1600000J0D01*
G01*
X5140000Y-3000000D02*
G75*
G03*
X5140000Y-3000000I-1600000J0D01*
G01*
X3000000Y0D02*
G75*
G03*
X0Y-3000000I0J-3000000D01*
G01*
X254060000Y-3000000D02*
G75*
G03*
X254060000Y-3000000I-1600000J0D01*
G01*
D11*
%TO.C,SW3*%
X44200000Y-43450000D02*
X44200000Y-44100000D01*
X45800000Y-43450000D02*
X45800000Y-44100000D01*
X45800000Y-43450000D02*
G75*
G03*
X44200000Y-43450000I-800000J0D01*
G01*
X44200000Y-44100000D02*
G75*
G03*
X45800000Y-44100000I800000J0D01*
G01*
X48000000Y-39250000D02*
G75*
G03*
X48000000Y-39250000I-500000J0D01*
G01*
X43650000Y-39250000D02*
G75*
G03*
X43650000Y-39250000I-650000J0D01*
G01*
X46025000Y-39250000D02*
G75*
G03*
X46025000Y-39250000I-1025000J0D01*
G01*
%TO.C,SW5*%
X44200000Y-93450000D02*
X44200000Y-94100000D01*
X45800000Y-93450000D02*
X45800000Y-94100000D01*
X45800000Y-93450000D02*
G75*
G03*
X44200000Y-93450000I-800000J0D01*
G01*
X44200000Y-94100000D02*
G75*
G03*
X45800000Y-94100000I800000J0D01*
G01*
X43650000Y-89250000D02*
G75*
G03*
X43650000Y-89250000I-650000J0D01*
G01*
X48000000Y-89250000D02*
G75*
G03*
X48000000Y-89250000I-500000J0D01*
G01*
X46025000Y-89250000D02*
G75*
G03*
X46025000Y-89250000I-1025000J0D01*
G01*
%TO.C,SW16*%
X246800000Y-118460000D02*
X246800000Y-119110000D01*
X245200000Y-118460000D02*
X245200000Y-119110000D01*
X246800000Y-118460000D02*
G75*
G03*
X245200000Y-118460000I-800000J0D01*
G01*
X245200000Y-119110000D02*
G75*
G03*
X246800000Y-119110000I800000J0D01*
G01*
X244650000Y-114260000D02*
G75*
G03*
X244650000Y-114260000I-650000J0D01*
G01*
X249000000Y-114260000D02*
G75*
G03*
X249000000Y-114260000I-500000J0D01*
G01*
X247025000Y-114260000D02*
G75*
G03*
X247025000Y-114260000I-1025000J0D01*
G01*
D12*
%TO.C,J6*%
X14010000Y-38750000D02*
G75*
G03*
X14010000Y-38750000I-900000J0D01*
G01*
X7010000Y-38750000D02*
G75*
G03*
X7010000Y-38750000I-900000J0D01*
G01*
D11*
%TO.C,SW9*%
X220200000Y-68450000D02*
X220200000Y-69100000D01*
X221800000Y-68450000D02*
X221800000Y-69100000D01*
X220200000Y-69100000D02*
G75*
G03*
X221800000Y-69100000I800000J0D01*
G01*
X221800000Y-68450000D02*
G75*
G03*
X220200000Y-68450000I-800000J0D01*
G01*
X224000000Y-64250000D02*
G75*
G03*
X224000000Y-64250000I-500000J0D01*
G01*
X222025000Y-64250000D02*
G75*
G03*
X222025000Y-64250000I-1025000J0D01*
G01*
X219650000Y-64250000D02*
G75*
G03*
X219650000Y-64250000I-650000J0D01*
G01*
%TO.C,SW7*%
X220200000Y-18460000D02*
X220200000Y-19110000D01*
X221800000Y-18460000D02*
X221800000Y-19110000D01*
X221800000Y-18460000D02*
G75*
G03*
X220200000Y-18460000I-800000J0D01*
G01*
X220200000Y-19110000D02*
G75*
G03*
X221800000Y-19110000I800000J0D01*
G01*
X224000000Y-14260000D02*
G75*
G03*
X224000000Y-14260000I-500000J0D01*
G01*
X219650000Y-14260000D02*
G75*
G03*
X219650000Y-14260000I-650000J0D01*
G01*
X222025000Y-14260000D02*
G75*
G03*
X222025000Y-14260000I-1025000J0D01*
G01*
D12*
%TO.C,J7*%
X14000000Y-21750000D02*
G75*
G03*
X14000000Y-21750000I-900000J0D01*
G01*
X7000000Y-21750000D02*
G75*
G03*
X7000000Y-21750000I-900000J0D01*
G01*
%TO.C,J4*%
X14000000Y-89750000D02*
G75*
G03*
X14000000Y-89750000I-900000J0D01*
G01*
X7000000Y-89750000D02*
G75*
G03*
X7000000Y-89750000I-900000J0D01*
G01*
D11*
%TO.C,SW4*%
X45810000Y-68450000D02*
X45810000Y-69100000D01*
X44210000Y-68450000D02*
X44210000Y-69100000D01*
X45810000Y-68450000D02*
G75*
G03*
X44210000Y-68450000I-800000J0D01*
G01*
X44210000Y-69100000D02*
G75*
G03*
X45810000Y-69100000I800000J0D01*
G01*
X43660000Y-64250000D02*
G75*
G03*
X43660000Y-64250000I-650000J0D01*
G01*
X48010000Y-64250000D02*
G75*
G03*
X48010000Y-64250000I-500000J0D01*
G01*
X46035000Y-64250000D02*
G75*
G03*
X46035000Y-64250000I-1025000J0D01*
G01*
%TO.C,J8*%
D13*
X229877500Y-123500000D02*
G75*
G03*
X229877500Y-123500000I-177500J0D01*
G01*
X236477500Y-123500000D02*
G75*
G03*
X236477500Y-123500000I-177500J0D01*
G01*
D11*
%TO.C,SW8*%
X221800000Y-43460000D02*
X221800000Y-44110000D01*
X220200000Y-43460000D02*
X220200000Y-44110000D01*
X220200000Y-44110000D02*
G75*
G03*
X221800000Y-44110000I800000J0D01*
G01*
X221800000Y-43460000D02*
G75*
G03*
X220200000Y-43460000I-800000J0D01*
G01*
X222025000Y-39260000D02*
G75*
G03*
X222025000Y-39260000I-1025000J0D01*
G01*
X224000000Y-39260000D02*
G75*
G03*
X224000000Y-39260000I-500000J0D01*
G01*
X219650000Y-39260000D02*
G75*
G03*
X219650000Y-39260000I-650000J0D01*
G01*
%TO.C,SW6*%
X45800000Y-118460000D02*
X45800000Y-119110000D01*
X44200000Y-118460000D02*
X44200000Y-119110000D01*
X44200000Y-119110000D02*
G75*
G03*
X45800000Y-119110000I800000J0D01*
G01*
X45800000Y-118460000D02*
G75*
G03*
X44200000Y-118460000I-800000J0D01*
G01*
X48000000Y-114260000D02*
G75*
G03*
X48000000Y-114260000I-500000J0D01*
G01*
X46025000Y-114260000D02*
G75*
G03*
X46025000Y-114260000I-1025000J0D01*
G01*
X43650000Y-114260000D02*
G75*
G03*
X43650000Y-114260000I-650000J0D01*
G01*
%TO.C,SW2*%
X45810000Y-18450000D02*
X45810000Y-19100000D01*
X44210000Y-18450000D02*
X44210000Y-19100000D01*
X45810000Y-18450000D02*
G75*
G03*
X44210000Y-18450000I-800000J0D01*
G01*
X44210000Y-19100000D02*
G75*
G03*
X45810000Y-19100000I800000J0D01*
G01*
X46035000Y-14250000D02*
G75*
G03*
X46035000Y-14250000I-1025000J0D01*
G01*
X43660000Y-14250000D02*
G75*
G03*
X43660000Y-14250000I-650000J0D01*
G01*
X48010000Y-14250000D02*
G75*
G03*
X48010000Y-14250000I-500000J0D01*
G01*
%TO.C,SW15*%
X245200000Y-93440000D02*
X245200000Y-94090000D01*
X246800000Y-93440000D02*
X246800000Y-94090000D01*
X246800000Y-93440000D02*
G75*
G03*
X245200000Y-93440000I-800000J0D01*
G01*
X245200000Y-94090000D02*
G75*
G03*
X246800000Y-94090000I800000J0D01*
G01*
X247025000Y-89240000D02*
G75*
G03*
X247025000Y-89240000I-1025000J0D01*
G01*
X249000000Y-89240000D02*
G75*
G03*
X249000000Y-89240000I-500000J0D01*
G01*
X244650000Y-89240000D02*
G75*
G03*
X244650000Y-89240000I-650000J0D01*
G01*
D12*
%TO.C,J3*%
X7000000Y-72740000D02*
G75*
G03*
X7000000Y-72740000I-900000J0D01*
G01*
X14000000Y-72740000D02*
G75*
G03*
X14000000Y-72740000I-900000J0D01*
G01*
D11*
%TO.C,SW11*%
X221790000Y-118460000D02*
X221790000Y-119110000D01*
X220190000Y-118460000D02*
X220190000Y-119110000D01*
X221790000Y-118460000D02*
G75*
G03*
X220190000Y-118460000I-800000J0D01*
G01*
X220190000Y-119110000D02*
G75*
G03*
X221790000Y-119110000I800000J0D01*
G01*
X222015000Y-114260000D02*
G75*
G03*
X222015000Y-114260000I-1025000J0D01*
G01*
X219640000Y-114260000D02*
G75*
G03*
X219640000Y-114260000I-650000J0D01*
G01*
X223990000Y-114260000D02*
G75*
G03*
X223990000Y-114260000I-500000J0D01*
G01*
%TO.C,SW10*%
X220200000Y-93460000D02*
X220200000Y-94110000D01*
X221800000Y-93460000D02*
X221800000Y-94110000D01*
X220200000Y-94110000D02*
G75*
G03*
X221800000Y-94110000I800000J0D01*
G01*
X221800000Y-93460000D02*
G75*
G03*
X220200000Y-93460000I-800000J0D01*
G01*
X219650000Y-89260000D02*
G75*
G03*
X219650000Y-89260000I-650000J0D01*
G01*
X224000000Y-89260000D02*
G75*
G03*
X224000000Y-89260000I-500000J0D01*
G01*
X222025000Y-89260000D02*
G75*
G03*
X222025000Y-89260000I-1025000J0D01*
G01*
%TO.C,SW14*%
X247060000Y-68680000D02*
X247060000Y-69330000D01*
X245460000Y-68680000D02*
X245460000Y-69330000D01*
X245460000Y-69330000D02*
G75*
G03*
X247060000Y-69330000I800000J0D01*
G01*
X247060000Y-68680000D02*
G75*
G03*
X245460000Y-68680000I-800000J0D01*
G01*
X249260000Y-64480000D02*
G75*
G03*
X249260000Y-64480000I-500000J0D01*
G01*
X244910000Y-64480000D02*
G75*
G03*
X244910000Y-64480000I-650000J0D01*
G01*
X247285000Y-64480000D02*
G75*
G03*
X247285000Y-64480000I-1025000J0D01*
G01*
%TO.C,SW13*%
X245210000Y-43440000D02*
X245210000Y-44090000D01*
X246810000Y-43440000D02*
X246810000Y-44090000D01*
X246810000Y-43440000D02*
G75*
G03*
X245210000Y-43440000I-800000J0D01*
G01*
X245210000Y-44090000D02*
G75*
G03*
X246810000Y-44090000I800000J0D01*
G01*
X247035000Y-39240000D02*
G75*
G03*
X247035000Y-39240000I-1025000J0D01*
G01*
X249010000Y-39240000D02*
G75*
G03*
X249010000Y-39240000I-500000J0D01*
G01*
X244660000Y-39240000D02*
G75*
G03*
X244660000Y-39240000I-650000J0D01*
G01*
D12*
%TO.C,J5*%
X14000000Y-55760000D02*
G75*
G03*
X14000000Y-55760000I-900000J0D01*
G01*
X7000000Y-55760000D02*
G75*
G03*
X7000000Y-55760000I-900000J0D01*
G01*
D11*
%TO.C,SW12*%
X245200000Y-18450000D02*
X245200000Y-19100000D01*
X246800000Y-18450000D02*
X246800000Y-19100000D01*
X245200000Y-19100000D02*
G75*
G03*
X246800000Y-19100000I800000J0D01*
G01*
X246800000Y-18450000D02*
G75*
G03*
X245200000Y-18450000I-800000J0D01*
G01*
X249000000Y-14250000D02*
G75*
G03*
X249000000Y-14250000I-500000J0D01*
G01*
X244650000Y-14250000D02*
G75*
G03*
X244650000Y-14250000I-650000J0D01*
G01*
X247025000Y-14250000D02*
G75*
G03*
X247025000Y-14250000I-1025000J0D01*
G01*
%TD*%
M02*
